
<svg width="724px" height="125px" viewBox="0 0 724 125" version="1.1" xmlns="http://www.w3.org/2000/svg" xmlns:xlink="http://www.w3.org/1999/xlink">
    <g id="Page-1" stroke="none" stroke-width="1" fill="none" fill-rule="evenodd">
        <path d="M89.4482422,0.84375 L89.7412109,0.84375 C91.2548904,0.84375 92.7197195,3.01657983 94.1357422,7.36230469 C94.2333989,7.85058838 94.2822266,8.33886475 94.2822266,8.82714844 C94.2822266,13.0752166 90.8398782,16.8105308 83.9550781,20.0332031 C78.1933306,22.3281365 72.7978767,23.4755859 67.7685547,23.4755859 L66.1572266,23.4755859 C64.2040918,23.4755859 61.2011921,23.3535168 57.1484375,23.109375 L57.1484375,23.1826172 C53.6816233,34.1201719 51.0205171,42.7626636 49.1650391,49.1103516 C48.5302703,50.9170012 47.8222695,53.2119001 47.0410156,55.9951172 C52.6562781,55.2138633 56.9042825,54.8232422 59.7851563,54.8232422 C64.4726797,54.8232422 67.3535103,56.0195193 68.4277344,58.4121094 C68.769533,59.3398484 68.9404297,60.462884 68.9404297,61.78125 C68.8427729,64.7109521 68.6474624,66.4199194 68.3544922,66.9082031 C68.0126936,67.0058599 67.7929692,67.0546875 67.6953125,67.0546875 L67.4755859,67.0546875 C67.1337874,67.0546875 64.228543,66.5664111 58.7597656,65.5898438 C55.8300635,65.1503884 52.6318533,64.9306641 49.1650391,64.9306641 L47.3339844,64.9306641 C45.0878794,64.9306641 43.9648438,65.0283193 43.9648438,65.2236328 C37.4218423,85.8292046 31.416043,99.7450811 25.9472656,106.97168 C24.0429592,109.217785 22.5048887,110.536131 21.3330078,110.926758 C19.6728433,111.708012 17.8173931,112.098633 15.7666016,112.098633 L15.1806641,112.098633 C11.7138499,112.098633 8.24708765,110.780287 4.78027344,108.143555 C2.1435415,105.848621 0.825195312,103.822274 0.825195312,102.064453 L0.825195312,101.844727 C0.825195312,100.916988 1.19140259,100.453125 1.92382812,100.453125 C7.29494873,98.3046768 12.5683335,92.1035669 17.7441406,81.8496094 C22.7246343,71.742137 27.7782947,58.168054 32.9052734,41.1269531 C35.4443486,32.9726155 37.543937,26.4785398 39.2041016,21.6445312 C37.7880789,21.5957029 36.7382847,21.5712891 36.0546875,21.5712891 L33.6376953,21.5712891 C22.3095137,21.5712891 15.2295063,24.2323953 12.3974609,29.5546875 C12.006834,30.7753967 11.3964885,31.3857422 10.5664062,31.3857422 C8.95507007,31.3857422 7.36817188,29.6035334 5.80566406,26.0390625 C5.31738037,24.4765547 5.07324219,23.0605532 5.07324219,21.7910156 L5.07324219,20.765625 C5.07324219,16.6152136 7.09958911,13.0019685 11.1523438,9.92578125 C15.4492402,7.19139258 20.8446941,5.82421875 27.3388672,5.82421875 L28.8769531,5.82421875 C34.2969021,5.82421875 41.4745647,6.84959912 50.4101562,8.90039062 C55.3418215,9.7304729 59.9316194,10.1455078 64.1796875,10.1455078 C75.4590408,10.1455078 83.3691179,7.28909106 87.9101562,1.57617188 C88.544925,1.08788818 89.0576152,0.84375 89.4482422,0.84375 Z M86.1806641,25.5263672 C92.6260088,27.8213005 94.0420103,32.5575813 90.4287109,39.7353516 C89.4033152,42.17677 88.9272457,43.6904268 89.0004883,44.2763672 C89.0737308,44.8623076 90.7338705,44.5327211 93.980957,43.2875977 C97.2280436,42.0424742 99.9257705,41.4199219 102.074219,41.4199219 C105.052749,41.4199219 107.164545,42.213371 108.409668,43.800293 C109.654791,45.387215 110.155275,46.8032164 109.911133,48.0483398 C109.666991,49.2934633 107.884782,53.7978127 104.564453,61.5615234 L95.0429688,85.0722656 C94.1152297,87.1230571 93.9199192,88.4414033 94.4570312,89.0273438 C96.2636809,89.0273438 101.634721,83.5830623 110.570312,72.6943359 C116.185575,65.565394 120.62889,59.4375256 123.900391,54.3105469 C125.511727,51.6249866 126.976556,49.0371218 128.294922,46.546875 C129.369146,45.0820239 130.174802,44.3496094 130.711914,44.3496094 L130.931641,44.3496094 C131.468753,44.3496094 131.737305,44.8378857 131.737305,45.8144531 C131.737305,48.841812 127.660197,57.2889932 119.505859,71.15625 C107.054625,91.3711948 97.7529604,101.478516 91.6005859,101.478516 C87.108376,101.478516 83.5927861,99.5254102 81.0537109,95.6191406 C79.9306584,93.812491 79.3691406,91.8593855 79.3691406,89.7597656 C79.3691406,88.1972578 80.0771414,85.6582207 81.4931641,82.1425781 C89.3057031,60.9510659 93.2851555,50.1357444 93.4316406,49.6962891 C93.480469,49.3544905 93.3339861,49.2324214 92.9921875,49.3300781 C91.9667917,49.5253916 89.8427896,50.5995996 86.6201172,52.5527344 C85.4970647,53.1875032 84.3740291,53.5048828 83.2509766,53.5048828 L82.3720703,53.5048828 C79.3935398,53.5048828 76.9033303,52.0400537 74.9013672,49.1103516 C74.21777,47.6943289 73.8759766,46.327155 73.8759766,45.0087891 C73.8759766,43.5927664 74.5839773,41.0781431 76,37.4648438 C77.9531348,31.8007529 79.3691362,28.0654387 80.2480469,26.2587891 C81.0781292,24.793938 83.0556484,24.5497998 86.1806641,25.5263672 Z M152.828125,27.5039062 C159.810582,27.5039062 165.254863,30.5068059 169.161133,36.5126953 C170.625984,38.7099719 171.236329,42.2743894 170.992188,47.2060547 C170.601561,55.1162505 168.282248,64.32026 164.03418,74.8183594 C165.157232,74.8183594 166.939441,74.2324277 169.380859,73.0605469 C170.748054,72.4746064 172.603504,71.0830188 174.947266,68.8857422 C177.779311,66.0048684 180.977521,62.0010022 184.541992,56.8740234 C187.667008,52.577127 190.083976,48.8418127 191.792969,45.6679688 C193.062506,43.9101475 194.039059,43.03125 194.722656,43.03125 C195.308597,43.1777351 195.601562,43.6660115 195.601562,44.4960938 C195.455077,46.8886838 192.745144,52.9921384 187.47168,62.8066406 C184.444321,68.275418 180.53811,73.646458 175.75293,78.9199219 C169.844697,84.8769829 164.30276,87.8554688 159.126953,87.8554688 L157.222656,87.8554688 C155.660148,90.1015737 153.926767,92.3232312 152.022461,94.5205078 C147.579079,99.2080312 142.452177,101.551758 136.641602,101.551758 C130.0986,101.551758 124.874043,99.2324451 120.967773,94.59375 C117.842758,90.2480251 116.426756,84.8037437 116.719727,78.2607422 C117.061525,70.7900017 119.795873,61.5859922 124.922852,50.6484375 C132.930704,35.2186729 142.232369,27.5039062 152.828125,27.5039062 Z M143.746094,50.5751953 C143.55078,54.7256067 144.966782,59.5107151 147.994141,64.9306641 C148.92188,66.3955151 150.240226,68.0068271 151.949219,69.7646484 C155.660175,59.5106909 157.686522,50.9902683 158.02832,44.203125 C158.223634,40.0038853 157.588875,37.4160205 156.124023,36.4394531 C155.831053,36.292968 155.440432,36.2197266 154.952148,36.2197266 C152.071275,37.0009805 148.897478,40.1991907 145.430664,45.8144531 C144.35644,47.2304758 143.794922,48.817374 143.746094,50.5751953 Z M133.125977,82.5820312 C132.930663,87.1230696 133.663078,90.0771416 135.323242,91.4443359 L135.982422,91.5175781 C139.009781,91.5175781 142.33006,88.4658508 145.943359,82.3623047 C144.087881,80.555655 142.549811,78.7246187 141.329102,76.8691406 C139.229482,73.5976399 137.715825,70.6679817 136.788086,68.0800781 C136.495116,67.3476526 136.348633,66.9082039 136.348633,66.7617188 C136.202148,66.7617188 135.762699,68.2753755 135.030273,71.3027344 C133.956049,75.746116 133.32129,79.505844 133.125977,82.5820312 Z M227.239258,29.1884766 C229.241221,29.1884766 232.073224,30.5556504 235.735352,33.2900391 C237.102546,34.5595767 237.786133,35.8046814 237.786133,37.0253906 L237.786133,37.3183594 C237.786133,39.0761807 236.29689,43.3730127 233.318359,50.2089844 C227.751925,63.0508455 223.601576,73.597615 220.867188,81.8496094 C219.646478,85.7558789 219.036133,87.9287087 219.036133,88.3681641 C219.182618,88.8564478 219.329101,89.1005859 219.475586,89.1005859 L219.695312,89.1005859 C221.550791,89.0029292 226.72652,83.7539583 235.222656,73.3535156 C244.060591,62.025334 249.773425,53.7002219 252.361328,48.3779297 C253.826179,45.5947126 255.04687,44.203125 256.023438,44.203125 C256.56055,44.3496101 256.829102,44.7890588 256.829102,45.5214844 L256.829102,45.8144531 C256.829102,49.1836106 252.019579,58.7782412 242.400391,74.5986328 C231.023381,92.4209875 222.625027,101.332031 217.205078,101.332031 L216.106445,101.332031 C212.395489,101.332031 209.221693,99.623064 206.584961,96.2050781 C205.168938,94.1054583 204.460938,91.9326284 204.460938,89.6865234 C204.460938,88.2705007 205.144524,85.8291189 206.511719,82.3623047 C213.152377,64.0028379 216.667967,54.1396553 217.058594,52.7724609 C217.205079,52.1376921 217.27832,51.5761743 217.27832,51.0878906 C217.27832,50.5996069 217.107424,50.3066411 216.765625,50.2089844 C215.349602,50.2089844 211.736357,53.8710571 205.925781,61.1953125 C198.650354,70.9609863 193.352556,79.0175464 190.032227,85.3652344 C187.24901,90.6875266 185.857422,93.7636677 185.857422,94.59375 C185.369138,95.8144592 185.125,97.3037021 185.125,99.0615234 L185.125,101.332031 C185.125,101.429688 185.051759,101.478516 184.905273,101.478516 C179.436496,101.478516 175.652354,98.6220989 173.552734,92.9091797 C173.210936,91.2490151 173.040039,89.9062551 173.040039,88.8808594 C173.040039,86.2441274 174.57811,80.6289492 177.654297,72.0351562 C183.464873,54.3104583 188.249981,41.2490654 192.009766,32.8505859 C193.08399,30.7021377 194.036129,29.6279297 194.866211,29.6279297 C195.061524,29.5791013 195.281249,29.5546875 195.525391,29.5546875 C197.673839,29.5546875 200.505842,31.0439304 204.021484,34.0224609 C204.998052,35.0966851 205.486328,36.2197207 205.486328,37.3916016 C205.486328,39.295908 203.240257,45.4237764 198.748047,55.7753906 C210.857482,38.0506926 220.354458,29.1884766 227.239258,29.1884766 Z M269.570312,9.26660156 C271.621104,9.26660156 274.379865,10.6581892 277.84668,13.4414062 C279.018561,14.6132871 279.604492,15.8095642 279.604492,17.0302734 C279.604492,18.6416096 278.408215,22.3036824 276.015625,28.0166016 L283.852539,28.0166016 C284.291994,28.0654299 284.511719,28.2363267 284.511719,28.5292969 L284.511719,28.7490234 C283.388666,32.1670093 282.729493,33.9248042 282.53418,34.0224609 C282.192381,34.3642595 281.875001,34.5351562 281.582031,34.5351562 L273.305664,34.5351562 C266.176722,51.8203989 260.683613,65.4921372 256.826172,75.5507812 C255.263664,79.6035359 253.920904,83.8759541 252.797852,88.3681641 C252.797852,88.9541045 252.968748,89.2470703 253.310547,89.2470703 L253.530273,89.2470703 C255.336923,89.0029285 260.122031,84.1689924 267.885742,74.7451172 C274.575229,66.3466377 279.604475,59.4131133 282.973633,53.9443359 C284.389656,51.698231 285.683588,49.4277458 286.855469,47.1328125 C288.02735,45.2285061 288.979489,44.2763672 289.711914,44.2763672 C290.297854,44.2763672 290.59082,44.7646436 290.59082,45.7412109 C290.59082,48.0849727 288.22268,53.553668 283.486328,62.1474609 C279.189432,70.0576567 274.428737,77.6747681 269.204102,84.9990234 C267.104482,88.0263823 264.6631,91.0536958 261.879883,94.0810547 C257.387673,99.01272 253.579117,101.478516 250.454102,101.478516 L250.380859,101.478516 C245.986306,101.478516 242.519544,99.5742378 239.980469,95.765625 C238.808588,93.8613186 238.222656,91.932627 238.222656,89.9794922 L238.222656,89.6132812 C238.222656,88.2460869 238.784174,86.1709124 239.907227,83.3876953 C250.161184,54.8230994 256.0205,38.5390825 257.485352,34.5351562 L250.820312,34.5351562 C250.380857,34.5351562 250.161133,34.3154319 250.161133,33.8759766 C251.333014,30.2138489 252.016601,28.3828125 252.211914,28.3828125 C252.553713,28.1386707 252.846678,28.0166016 253.09082,28.0166016 L260.048828,28.0166016 C262.734388,20.6435178 265.200184,14.7597876 267.446289,10.3652344 C267.885744,9.63280884 268.593745,9.26660156 269.570312,9.26660156 Z M305.456055,29.9941406 C310.436548,29.9941406 315.270484,31.6054526 319.958008,34.828125 C321.715829,35.9511775 322.985348,37.9775244 323.766602,40.9072266 C324.254885,42.5673911 324.499023,44.325186 324.499023,46.1806641 L324.499023,46.8398438 C324.499023,52.8945615 321.862331,59.5839478 316.588867,66.9082031 C314.733389,69.1054797 313.097663,70.6679641 311.681641,71.5957031 C308.556625,73.5488379 305.602553,74.5253906 302.819336,74.5253906 L301.94043,74.5253906 C298.815414,74.5253906 295.958997,73.3291135 293.371094,70.9365234 L293.297852,70.9365234 C291.735344,76.307644 290.954102,80.482407 290.954102,83.4609375 C290.954102,87.1718936 292.174792,89.4912063 294.616211,90.4189453 C295.446293,90.7119155 296.178708,90.8583984 296.813477,90.8583984 L297.472656,90.8583984 C302.306665,90.8583984 308.947223,86.5127388 317.394531,77.8212891 C322.765652,71.9618848 326.940415,66.8593967 329.918945,62.5136719 C333.434588,57.3866931 336.803695,51.8203425 340.026367,45.8144531 C340.612308,44.8867141 341.07617,44.4228516 341.417969,44.4228516 C342.052738,44.4228516 342.370117,44.8134727 342.370117,45.5947266 C342.370117,48.2314585 339.538114,55.0917415 333.874023,66.1757812 C330.797836,72.0351855 326.623073,78.1874678 321.349609,84.6328125 C317.589825,89.0273657 314.245132,92.347645 311.31543,94.59375 C304.967742,99.2812734 298.473666,101.625 291.833008,101.625 L290.880859,101.625 C287.658187,101.625 285.070322,101.063482 283.117188,99.9404297 C279.357403,98.0849517 276.720711,95.0332244 275.207031,90.7851562 C274.279292,88.3437378 273.81543,85.9267698 273.81543,83.5341797 L273.81543,82.1425781 C273.81543,78.9199058 275.060534,73.4267966 277.550781,65.6630859 C280.089856,57.8017185 282.873032,51.2344014 285.900391,45.9609375 C287.365242,43.2265488 289.391589,40.2968906 291.979492,37.171875 C294.762709,34.2910012 296.81347,32.5576201 298.131836,31.9716797 C300.133799,30.6533137 302.575181,29.9941406 305.456055,29.9941406 Z M295.128906,65.8828125 C296.20313,66.9570366 297.374994,67.4941406 298.644531,67.4941406 L298.717773,67.4941406 C301.696304,67.4941406 305.114239,64.491241 308.97168,58.4853516 C309.997075,56.8740154 311.04687,54.6279441 312.121094,51.7470703 C313.390631,47.8408008 314.025391,44.7646597 314.025391,42.5185547 L314.025391,41.7861328 C314.025391,39.832998 313.463873,38.8564453 312.34082,38.8564453 L312.194336,38.8564453 C308.874007,38.8564453 303.869174,46.1805908 297.179688,60.8291016 C296.154292,63.2216917 295.470705,64.9062451 295.128906,65.8828125 Z M378.402344,29.1884766 C380.404307,29.1884766 383.23631,30.5556504 386.898438,33.2900391 C388.265632,34.5595767 388.949219,35.8046814 388.949219,37.0253906 L388.949219,37.3183594 C388.949219,39.0761807 387.459976,43.3730127 384.481445,50.2089844 C378.915011,63.0508455 374.764662,73.597615 372.030273,81.8496094 C370.809564,85.7558789 370.199219,87.9287087 370.199219,88.3681641 C370.345704,88.8564478 370.492187,89.1005859 370.638672,89.1005859 L370.858398,89.1005859 C372.713876,89.0029292 377.889606,83.7539583 386.385742,73.3535156 C395.223677,62.025334 400.93651,53.7002219 403.524414,48.3779297 C404.989265,45.5947126 406.209956,44.203125 407.186523,44.203125 C407.723635,44.3496101 407.992188,44.7890588 407.992188,45.5214844 L407.992188,45.8144531 C407.992188,49.1836106 403.182665,58.7782412 393.563477,74.5986328 C382.186467,92.4209875 373.788113,101.332031 368.368164,101.332031 L367.269531,101.332031 C363.558575,101.332031 360.384779,99.623064 357.748047,96.2050781 C356.332024,94.1054583 355.624023,91.9326284 355.624023,89.6865234 C355.624023,88.2705007 356.30761,85.8291189 357.674805,82.3623047 C364.315463,64.0028379 367.831053,54.1396553 368.22168,52.7724609 C368.368165,52.1376921 368.441406,51.5761743 368.441406,51.0878906 C368.441406,50.5996069 368.27051,50.3066411 367.928711,50.2089844 C366.512688,50.2089844 362.899443,53.8710571 357.088867,61.1953125 C349.81344,70.9609863 344.515642,79.0175464 341.195312,85.3652344 C338.412095,90.6875266 337.020508,93.7636677 337.020508,94.59375 C336.532224,95.8144592 336.288086,97.3037021 336.288086,99.0615234 L336.288086,101.332031 C336.288086,101.429688 336.214844,101.478516 336.068359,101.478516 C330.599582,101.478516 326.81544,98.6220989 324.71582,92.9091797 C324.374022,91.2490151 324.203125,89.9062551 324.203125,88.8808594 C324.203125,86.2441274 325.741196,80.6289492 328.817383,72.0351562 C334.627959,54.3104583 339.413067,41.2490654 343.172852,32.8505859 C344.247076,30.7021377 345.199215,29.6279297 346.029297,29.6279297 C346.22461,29.5791013 346.444335,29.5546875 346.688477,29.5546875 C348.836925,29.5546875 351.668928,31.0439304 355.18457,34.0224609 C356.161138,35.0966851 356.649414,36.2197207 356.649414,37.3916016 C356.649414,39.295908 354.403343,45.4237764 349.911133,55.7753906 C362.020568,38.0506926 371.517544,29.1884766 378.402344,29.1884766 Z M453.838867,9.33984375 C455.645517,9.33984375 458.135726,10.511707 461.30957,12.8554688 C462.969735,14.2226631 463.799805,15.6386646 463.799805,17.1035156 C463.799805,19.0566504 461.871113,24.5253457 458.013672,33.5097656 C450.787073,50.9414934 444.878929,65.6874397 440.289062,77.7480469 C438.091786,84.24222 436.993164,87.8554651 436.993164,88.5878906 C436.993164,89.0761743 437.188475,89.3203125 437.579102,89.3203125 L437.652344,89.3203125 C439.410165,89.3203125 444.512653,84.144583 452.959961,73.7929688 C457.061544,68.6171616 460.625961,63.8076394 463.65332,59.3642578 C466.631851,55.0673613 469.024405,51.1611504 470.831055,47.6455078 C471.85645,45.692373 472.881831,44.618165 473.907227,44.4228516 C474.493167,44.4228516 474.786133,44.9111279 474.786133,45.8876953 C474.786133,49.3545095 470.001024,58.9491401 460.430664,74.671875 C456.866193,80.5312793 452.49612,86.6103201 447.320312,92.9091797 C442.242162,98.7197556 437.994158,101.625 434.576172,101.625 C430.230447,101.625 426.763685,99.7207222 424.175781,95.9121094 C423.0039,94.007803 422.417969,92.0058699 422.417969,89.90625 L422.417969,89.8330078 C422.417969,89.5400376 422.442383,89.1494165 422.491211,88.6611328 L422.491211,88.5878906 L422.417969,88.5878906 C421.539058,90.1503984 419.219745,92.8115046 415.459961,96.5712891 C411.89549,99.5986479 409.039073,101.234374 406.890625,101.478516 C406.109371,101.576172 405.352543,101.625 404.620117,101.625 L403.594727,101.625 C397.881807,101.625 394.073252,98.9638938 392.168945,93.6416016 C391.534177,91.5419817 391.216797,89.3203242 391.216797,86.9765625 C391.216797,80.433561 393.853489,70.0821021 399.126953,55.921875 C400.982431,51.4784934 402.95995,47.4746272 405.05957,43.9101562 C406.475593,41.3710811 408.453112,38.685561 410.992188,35.8535156 C415.093771,31.6542759 419.073223,29.5546875 422.930664,29.5546875 L423.80957,29.5546875 C427.325213,29.5546875 430.987286,31.2880686 434.795898,34.7548828 C436.84669,36.9033311 438.38476,38.929678 439.410156,40.8339844 L439.483398,40.8339844 C443.63381,29.1640042 447.466779,19.4473044 450.982422,11.6835938 C451.714847,10.1210859 452.447262,9.33984375 453.179688,9.33984375 L453.838867,9.33984375 Z M409.234375,81.1171875 L409.234375,81.3369141 C409.38086,83.4365339 409.869136,84.4863281 410.699219,84.4863281 C410.796875,84.5351565 410.870117,84.5595703 410.918945,84.5595703 C412.041998,84.5595703 413.84862,83.1923965 416.338867,80.4580078 C420.245137,76.3075964 423.418933,72.3769717 425.860352,68.6660156 C431.622099,59.8769092 434.50293,52.503936 434.50293,46.546875 C434.50293,43.8124863 433.550791,41.9570361 431.646484,40.9804688 C431.207029,40.882812 430.840822,40.8339844 430.547852,40.8339844 L430.254883,40.8339844 C427.471666,40.8339844 424.151386,44.2030913 420.293945,50.9414062 C417.559557,55.9218999 414.825209,62.0741821 412.09082,69.3984375 C410.186514,75.4531553 409.234375,79.3593662 409.234375,81.1171875 Z M512.353516,1.64941406 L512.939453,1.64941406 C524.462948,1.64941406 533.666958,6.77631592 540.551758,17.0302734 C545.629908,24.8428125 548.168945,33.8515115 548.168945,44.0566406 C548.168945,58.2168677 543.335009,72.4745376 533.666992,86.8300781 C531.860343,89.320325 529.467788,92.2011555 526.489258,95.4726562 L526.489258,95.5458984 C531.127953,102.38187 537.475546,107.166979 545.532227,109.901367 C547.387705,110.438479 548.559568,110.804687 549.047852,111 C549.536135,111.488284 549.780273,112.049802 549.780273,112.68457 L549.780273,112.831055 C549.633788,114.051764 547.143579,116.615215 542.30957,120.521484 C538.256816,123.35353 534.545915,124.769531 531.176758,124.769531 C525.903294,124.769531 520.751978,120.66801 515.722656,112.464844 C515.087887,111.341791 514.062507,109.291031 512.646484,106.3125 L512.573242,106.3125 C504.711875,110.707053 497.876006,112.904297 492.06543,112.904297 C482.446241,112.904297 475.878924,107.36236 472.363281,96.2783203 C471.142572,91.8837671 470.532227,87.5625212 470.532227,83.3144531 L470.532227,81.1171875 C470.532227,72.3280811 472.53416,63.197313 476.538086,53.7246094 C478.19825,50.1113101 480.346667,46.5713064 482.983398,43.1044922 C488.647489,36.5614907 494.555633,33.2900391 500.708008,33.2900391 L501.074219,33.2900391 C501.220704,33.2900391 501.342773,33.2656252 501.44043,33.2167969 L501.879883,33.2900391 L502.026367,33.2900391 C504.467786,33.2900391 506.103511,33.9003845 506.933594,35.1210938 C508.54493,37.0254001 509.350586,39.4911958 509.350586,42.5185547 C509.350586,46.9619363 507.739274,50.5019399 504.516602,53.1386719 L499.682617,56.0683594 C498.754878,56.5078147 497.070325,57.9726438 494.628906,60.4628906 C491.503891,64.4179885 489.306647,67.8359231 488.037109,70.7167969 C485.156236,76.9668281 483.71582,82.3866958 483.71582,86.9765625 C483.71582,92.1523696 485.498029,95.5703042 489.0625,97.2304688 C490.332038,97.8164092 491.870108,98.109375 493.676758,98.109375 L494.042969,98.109375 C498.242208,98.109375 502.539041,96.2783386 506.933594,92.6162109 C504.736317,87.0009485 502.294935,81.9717019 499.609375,77.5283203 C498.486323,75.8681558 497.314459,74.2568438 496.09375,72.6943359 C498.681654,70.8876863 501.220691,69.984375 503.710938,69.984375 L504.077148,69.984375 C507.446306,69.984375 510.644516,71.8886528 513.671875,75.6972656 C514.990241,77.1621167 516.186518,78.7490149 517.260742,80.4580078 C517.944339,79.6279255 519.018547,77.8457168 520.483398,75.1113281 C526.782258,63.3436912 529.931641,52.0645071 529.931641,41.2734375 C529.931641,30.5800247 526.416051,23.9394661 519.384766,21.3515625 C517.773429,20.8144504 516.186531,20.5458984 514.624023,20.5458984 L513.671875,20.5458984 C507.373015,20.5458984 500.097698,23.6464534 491.845703,29.8476562 C487.207008,33.656269 483.325211,37.56248 480.200195,41.5664062 C477.124008,45.6191609 474.536143,49.5986133 472.436523,53.5048828 C471.118157,53.5048828 469.140638,52.4306748 466.503906,50.2822266 C462.841779,46.8154124 461.010742,43.4218916 461.010742,40.1015625 L461.010742,39.4423828 C461.010742,34.3154041 464.208952,28.2851909 470.605469,21.3515625 C474.365253,17.6406064 477.392567,15.0039141 479.6875,13.4414062 C483.837911,10.5605325 487.548812,8.38770264 490.820312,6.92285156 C498.486366,3.40720898 505.664029,1.64941406 512.353516,1.64941406 Z M568.09375,29.2617188 L568.899414,29.2617188 C570.657235,29.2617188 572.756824,30.0673748 575.198242,31.6787109 C578.762713,32.9482485 580.544922,34.095698 580.544922,35.1210938 C580.544922,35.2675789 579.95899,36.317373 578.787109,38.2705078 C573.464817,48.5732937 568.630881,59.7548225 564.285156,71.8154297 C562.820305,76.356468 562.087891,79.5302644 562.087891,81.3369141 L562.087891,81.703125 C562.087891,82.9726626 562.527339,83.6074219 563.40625,83.6074219 C565.50587,83.36328 568.752908,80.8974844 573.147461,76.2099609 C575.442394,73.6708857 577.419914,71.2295039 579.080078,68.8857422 C580.984385,66.1025251 582.791007,63.1728669 584.5,60.0966797 C586.550792,56.1904102 588.84569,50.5264043 591.384766,43.1044922 C594.314468,35.4384382 596.365229,31.0683647 597.537109,29.9941406 C597.976565,29.7011704 598.416013,29.5546875 598.855469,29.5546875 L599.368164,29.5546875 C601.125985,29.5546875 603.71385,30.8486199 607.131836,33.4365234 C608.49903,34.6572327 609.182617,35.951165 609.182617,37.3183594 C609.182617,39.2226658 607.327167,44.4228091 603.616211,52.9189453 C599.026344,63.6123582 595.486341,72.5234019 592.996094,79.6523438 C591.287101,84.8281509 590.432617,87.7333953 590.432617,88.3681641 L590.432617,88.4414062 C590.432617,88.8320332 590.554686,89.0761714 590.798828,89.1738281 L591.091797,89.1738281 C592.80079,89.1738281 597.952105,83.949271 606.545898,73.5 C615.48149,62.0741616 621.487289,53.1875317 624.563477,46.8398438 C625.735357,45.1796792 626.614255,44.3496094 627.200195,44.3496094 L627.419922,44.3496094 C627.957034,44.3496094 628.225586,44.8378857 628.225586,45.8144531 C628.225586,49.1347822 623.464891,58.6805852 613.943359,74.4521484 C610.183575,80.5068662 606.082053,86.2441135 601.638672,91.6640625 C596.072238,98.207064 591.67775,101.478516 588.455078,101.478516 C583.718726,101.478516 580.203136,99.1836167 577.908203,94.59375 C577.078121,92.6894436 576.663086,90.7363381 576.663086,88.734375 C576.663086,87.5624941 576.931638,85.9755959 577.46875,83.9736328 C575.173817,87.1963052 572.292986,90.6386536 568.826172,94.3007812 C563.845678,99.0859614 559.866226,101.478516 556.887695,101.478516 C555.422844,101.478516 553.616222,100.624032 551.467773,98.9150391 C548.196273,95.6923667 546.560547,91.2490518 546.560547,85.5849609 C546.560547,82.5087737 547.878893,76.9668369 550.515625,68.9589844 C555.496119,53.6268765 560.085917,41.4199673 564.285156,32.3378906 C565.261724,30.4824126 566.091793,29.5546875 566.775391,29.5546875 C567.068361,29.359374 567.50781,29.2617188 568.09375,29.2617188 Z M642.871094,9.046875 C644.921885,9.046875 647.753888,10.5361179 651.367188,13.5146484 C652.343755,14.5888726 652.832031,15.6630806 652.832031,16.7373047 L652.832031,16.8837891 C652.832031,18.5439536 652.050789,21.1562322 650.488281,24.7207031 C649.707027,25.8437556 648.803716,26.4052734 647.77832,26.4052734 C646.752925,26.4052734 644.335957,25.4287207 640.527344,23.4755859 C638.134754,21.766593 636.938477,20.1796948 636.938477,18.7148438 C636.938477,18.3242168 638.012685,15.8340073 640.161133,11.2441406 C640.747073,9.77928955 641.625971,9.046875 642.797852,9.046875 L642.871094,9.046875 Z M633.935547,29.4082031 C636.083995,29.4082031 638.915998,30.8730322 642.431641,33.8027344 C643.457036,34.8281301 643.969727,35.9511658 643.969727,37.171875 C643.969727,39.1250098 641.796897,45.0331538 637.451172,54.8964844 C632.763648,65.8828674 629.150403,75.208946 626.611328,82.875 C625.683589,86.1465007 625.219727,87.9531233 625.219727,88.2949219 C625.219727,88.8320339 625.439451,89.1005859 625.878906,89.1005859 C628.125011,88.4658171 632.836878,83.7539502 640.014648,74.9648438 C649.585009,62.9530649 655.85936,53.8222969 658.837891,47.5722656 C660.107428,45.4238174 661.181636,44.2763679 662.060547,44.1298828 L662.133789,44.1298828 C662.719729,44.1298828 663.012695,44.642573 663.012695,45.6679688 C663.012695,48.5488425 659.252967,56.4589197 651.733398,69.3984375 C638.745052,90.6876064 629.223663,101.332031 623.168945,101.332031 C618.627907,101.332031 615.209972,99.1836152 612.915039,94.8867188 C611.938472,92.8847556 611.450195,90.8095811 611.450195,88.6611328 C611.450195,85.9755725 613.20799,79.7988765 616.723633,70.1308594 C621.89944,54.2616394 626.391583,41.957075 630.200195,33.2167969 C631.274419,31.1660054 632.006834,30.0429697 632.397461,29.8476562 C632.788088,29.554686 633.300778,29.4082031 633.935547,29.4082031 Z M674.142578,29.2617188 C691.818448,29.4570322 700.65625,29.6035151 700.65625,29.7011719 C704.464863,32.7285308 706.271485,35.658189 706.076172,38.4902344 C705.978515,40.1992273 704.953135,42.3964709 703,45.0820312 C696.261685,54.4082498 684.445397,68.3973677 667.550781,87.0498047 C669.210946,87.4404316 670.919913,87.6357422 672.677734,87.6357422 L673.117188,87.6357422 C682.736376,87.6357422 693.331973,80.5557349 704.904297,66.3955078 C711.593783,58.5341404 716.256823,52.2353752 718.893555,47.4990234 C720.407234,45.057605 721.652339,43.8369141 722.628906,43.8369141 C723.019533,43.8369141 723.214844,44.3007766 723.214844,45.2285156 L723.141602,45.375 C722.995116,47.7187617 720.260769,53.3095261 714.938477,62.1474609 C710.836894,69.2764028 705.612336,77.3817905 699.264648,86.4638672 C697.262685,89.3935693 695.065442,92.0790894 692.672852,94.5205078 C690.426747,96.4736426 688.375986,97.767575 686.520508,98.4023438 C682.809552,100.208993 675.045958,101.112305 663.229492,101.112305 C657.077118,101.063476 652.902355,101.039062 650.705078,101.039062 C649.435541,101.087891 648.654298,101.112305 648.361328,101.112305 C647.726559,101.112305 646.994145,100.550787 646.164062,99.4277344 C645.089838,97.8652266 644.259769,95.8144658 643.673828,93.2753906 C643.380858,92.005853 643.234375,91.0293003 643.234375,90.3457031 L643.307617,90.1992188 C644.137699,87.4648301 651.925708,78.5537864 666.671875,63.4658203 C674.044959,56.0439082 681.34469,49.1592114 688.571289,42.8115234 L688.571289,42.6650391 C688.571289,42.3232405 686.569356,42.1523438 682.56543,42.1523438 L670.260742,42.1523438 C667.379868,42.1523438 665.866212,43.324207 665.719727,45.6679688 C665.62207,47.3281333 665.402345,48.1582031 665.060547,48.1582031 C665.060547,48.3046882 664.743167,48.4023435 664.108398,48.4511719 C660.006815,48.4511719 657.370123,46.9131013 656.198242,43.8369141 C655.856444,42.8115183 655.709961,41.7617241 655.758789,40.6875 C655.954103,37.4648276 657.443345,34.73048 660.226562,32.484375 C663.253921,30.3359268 667.892547,29.2617188 674.142578,29.2617188 Z" id="FrontendQuiz" fill="#000000" fill-rule="nonzero"></path>
    </g>
</svg>